# xmcd
#
# Track frame offsets: 
#        150
#        13676
#        25520
#        44215
#        69627
#        91140
#        98371
#        113380
#        117624
#        124495
#        139291
#        145168
#        162461
#        182319
#        200490
#        207585
#        215136
#        227810
#
# Disc length: 3361 seconds
#
# Revision: 0
# Processed by: cddbd v1.5.2PL0 Copyright (c) Steve Scherf et al.
# Submitted via: ExactAudioCopy v0.99pb5
#
DISCID=0a0d1f12
DTITLE=Jens Schöwing - Jens Schöwings Blue Note Bach - Nocturne
DYEAR=2017
DGENRE=Blues
TTITLE0=Nocturne 20 - Nocturne No. 20 In C Sharp Minor
TTITLE1=Phrygian Free Knock Turn - Nocturne No. 20 In C Sharp Minor
TTITLE2=Adagio From Piano Sonata No.12 In F Major, K.332, 2Nd Mov
TTITLE3=Simply Pathetique - Piano Sonata No. 8 In C Minor 'Pathetique'
TTITLE3=, Op. 13, 2Nd Mov
TTITLE4=I Remember Joe
TTITLE5=Goldberg Entree - Goldberg Variations No.1 In G Major BWV 988
TTITLE6=Goldberg Encore - Goldberg Variations No.1 In G Major BWV 988
TTITLE7=Con Game
TTITLE8=Peasants' Weather Maxim
TTITLE9=Crafty
TTITLE10=Kommt Er Noch?
TTITLE11=Schach Statt Bach
TTITLE12=Nocturne 9.1 - Nocturne Op. 9, No. 1 In B Flat Minor
TTITLE13=Nocturne 9.2 - Nocturne Op. 9, No. 2 In E Flat Major
TTITLE14=Crescendo Et Anime - Suite Bergamasque, 3Rd Mov. 'Clair De Lu
TTITLE14=ne'
TTITLE15=Mode Mineurs - Suite Bergamasque, 3Rd Mov. 'Clair De Lune'
TTITLE16=Morendo - Suite Bergamasque, 3Rd Mov. 'Clair De Lune'
TTITLE17=Finally Pathetique - Piano Sonata No. 8 In C Minor 'Pathetiqu
TTITLE17=e', Op. 13, 3Rd Mov
EXTD=
EXTT0=
EXTT1=
EXTT2=
EXTT3=
EXTT4=
EXTT5=
EXTT6=
EXTT7=
EXTT8=
EXTT9=
EXTT10=
EXTT11=
EXTT12=
EXTT13=
EXTT14=
EXTT15=
EXTT16=
EXTT17=
PLAYORDER=
